<svg id="_x31__x2C_5" enable-background="new 0 0 24 24" height="512" viewBox="0 0 24 24" width="512" xmlns="http://www.w3.org/2000/svg"><path d="m18.75 24h-13.5c-1.241 0-2.25-1.009-2.25-2.25v-10.5c0-1.241 1.009-2.25 2.25-2.25h13.5c1.241 0 2.25 1.009 2.25 2.25v10.5c0 1.241-1.009 2.25-2.25 2.25zm-13.5-13.5c-.414 0-.75.336-.75.75v10.5c0 .414.336.75.75.75h13.5c.414 0 .75-.336.75-.75v-10.5c0-.414-.336-.75-.75-.75z"/><path d="m17.25 10.5c-.414 0-.75-.336-.75-.75v-3.75c0-2.481-2.019-4.5-4.5-4.5s-4.5 2.019-4.5 4.5v3.75c0 .414-.336.75-.75.75s-.75-.336-.75-.75v-3.75c0-3.309 2.691-6 6-6s6 2.691 6 6v3.75c0 .414-.336.75-.75.75z"/><path d="m11.25 21c-.056 0-.112-.006-.169-.019-.404-.093-.655-.496-.563-.899l1.5-6.5c.093-.404.495-.65.899-.563.404.093.655.496.563.899l-1.5 6.5c-.079.348-.388.582-.73.582z"/><path d="m15.25 20c-.205 0-.409-.083-.558-.248-.277-.308-.252-.782.056-1.06l1.881-1.692-1.881-1.692c-.308-.277-.333-.751-.056-1.06.279-.309.751-.332 1.06-.056l2.5 2.25c.158.143.248.346.248.558s-.09.415-.248.558l-2.5 2.25c-.144.129-.323.192-.502.192z"/><path d="m8.75 20c-.179 0-.358-.063-.502-.192l-2.5-2.25c-.158-.143-.248-.346-.248-.558s.09-.415.248-.558l2.5-2.25c.309-.275.781-.252 1.06.056.277.308.252.782-.056 1.06l-1.881 1.692 1.881 1.692c.308.277.333.751.056 1.06-.149.165-.353.248-.558.248z"/></svg>