<?xml version="1.0"?>
<svg xmlns="http://www.w3.org/2000/svg" viewBox="0 0 64 64" width="512" height="512"><g id="concept"><path d="M32,25a6,6,0,1,0-6-6A6.006,6.006,0,0,0,32,25Zm0-10a4,4,0,1,1-4,4A4,4,0,0,1,32,15Z"/><path d="M61.165,49.014l-1.394-.233.821-1.15a1,1,0,0,0-.107-1.288l-2.828-2.828a1,1,0,0,0-1.288-.107l-1.15.821-.233-1.394A1,1,0,0,0,54,42H50a1,1,0,0,0-.986.835l-.233,1.394-1.15-.821a1,1,0,0,0-1.288.107l-2.828,2.828a1,1,0,0,0-.107,1.288l.821,1.15-1.394.233A1,1,0,0,0,42,50v4a1,1,0,0,0,.835.986l1.394.233-.821,1.15a1,1,0,0,0,.107,1.288l.711.711L42.587,60H33V53.99a4.988,4.988,0,0,0,4.728-3.777l.1-.4A2,2,0,0,0,39,48V41.319c5.173-5.57,9-16.757,9-23.319a16,16,0,0,0-32,0c0,6.562,3.827,17.749,9,23.319V48a2,2,0,0,0,1.173,1.816l.1.4A4.987,4.987,0,0,0,31,53.99V60H21.414l-1.636-1.636.707-.707a1,1,0,0,0,.107-1.288l-.821-1.15,1.394-.233A1,1,0,0,0,22,54V50a1,1,0,0,0-.835-.986l-1.394-.233.821-1.15a1,1,0,0,0-.107-1.288l-2.828-2.828a1,1,0,0,0-1.288-.107l-1.15.821-.233-1.394A1,1,0,0,0,14,42H10a1,1,0,0,0-.986.835l-.233,1.394-1.15-.821a1,1,0,0,0-1.288.107L3.515,46.343a1,1,0,0,0-.107,1.288l.821,1.15-1.394.233A1,1,0,0,0,2,50v4a1,1,0,0,0,.835.986l1.394.233-.821,1.15a1,1,0,0,0,.107,1.288l2.828,2.828a1,1,0,0,0,1.288.107l1.15-.821.233,1.394A1,1,0,0,0,10,62h4a1,1,0,0,0,.986-.835l.233-1.394,1.15.821a1,1,0,0,0,1.288-.107l.707-.707,1.929,1.929A1,1,0,0,0,21,62H43a1,1,0,0,0,.706-.292l1.934-1.926.7.7a1,1,0,0,0,1.288.107l1.15-.821.233,1.394A1,1,0,0,0,50,62h4a1,1,0,0,0,.986-.835l.233-1.394,1.15.821a1,1,0,0,0,1.288-.107l2.828-2.828a1,1,0,0,0,.107-1.288l-.821-1.15,1.394-.233A1,1,0,0,0,62,54V50A1,1,0,0,0,61.165,49.014ZM37,42v2H27V42ZM27,46H37v2H27ZM32,4A14.015,14.015,0,0,1,46,18c0,6.079-3.695,16.861-8.5,22H33V31h2a1,1,0,0,0,.986-.835l.183-1.1.907.647a1,1,0,0,0,1.288-.107l4.242-4.242a1,1,0,0,0,.107-1.288l-.647-.907,1.1-.183A1,1,0,0,0,44,22V16a1,1,0,0,0-.835-.986l-1.1-.183.647-.907a1,1,0,0,0-.107-1.288L38.364,8.394a1,1,0,0,0-1.288-.107l-.907.647-.183-1.1A1,1,0,0,0,35,7H29a1,1,0,0,0-.986.835l-.183,1.1-.907-.647a1,1,0,0,0-1.288.107l-4.242,4.242a1,1,0,0,0-.107,1.288l.647.907-1.1.183A1,1,0,0,0,20,16v6a1,1,0,0,0,.835.986l1.1.183-.647.907a1,1,0,0,0,.107,1.288l4.242,4.242a1,1,0,0,0,1.288.107l.907-.647.183,1.1A1,1,0,0,0,29,31h2v9H26.5C21.7,34.861,18,24.079,18,18A14.015,14.015,0,0,1,32,4ZM24.6,22.063a1,1,0,0,0-.759-.6L22,21.153V16.847l1.844-.307a1,1,0,0,0,.649-1.567l-1.086-1.522,3.044-3.044,1.522,1.086a1,1,0,0,0,1.567-.649L29.847,9h4.306l.307,1.844a1,1,0,0,0,1.567.649l1.522-1.086,3.044,3.044-1.086,1.522a1,1,0,0,0,.649,1.567L42,16.847v4.306l-1.844.307a1,1,0,0,0-.649,1.567l1.086,1.522-3.044,3.044-1.522-1.086a1,1,0,0,0-1.567.649L34.153,29H29.847l-.307-1.844a1,1,0,0,0-1.567-.649l-1.522,1.086-3.044-3.044,1.086-1.522A1,1,0,0,0,24.6,22.063ZM28.294,50h7.412a3,3,0,0,1-2.829,2H31.123A3,3,0,0,1,28.294,50ZM16.842,58.472l-1.765-1.261a1,1,0,0,0-1.568.65L13.153,60H10.847l-.356-2.139a1,1,0,0,0-1.568-.65L7.158,58.472l-1.63-1.63,1.261-1.765a1,1,0,0,0-.65-1.568L4,53.153V50.847l2.139-.356a1,1,0,0,0,.65-1.568L5.528,47.158l1.63-1.63,1.765,1.261a1,1,0,0,0,1.568-.65L10.847,44h2.306l.356,2.139a1,1,0,0,0,1.568.65l1.765-1.261,1.63,1.63-1.261,1.765a1,1,0,0,0,.65,1.568L20,50.847v2.306l-2.139.356a1,1,0,0,0-.65,1.568l1.261,1.765ZM60,53.153l-2.139.356a1,1,0,0,0-.65,1.568l1.261,1.765-1.63,1.63-1.765-1.261a1,1,0,0,0-1.568.65L53.153,60H50.847l-.356-2.139a1,1,0,0,0-1.568-.65l-1.765,1.261-1.63-1.63,1.261-1.765a1,1,0,0,0-.65-1.568L44,53.153V50.847l2.139-.356a1,1,0,0,0,.65-1.568l-1.261-1.765,1.63-1.63,1.765,1.261a1,1,0,0,0,1.568-.65L50.847,44h2.306l.356,2.139a1,1,0,0,0,1.568.65l1.765-1.261,1.63,1.63-1.261,1.765a1,1,0,0,0,.65,1.568L60,50.847Z"/><path d="M52,48a4,4,0,1,0,4,4A4,4,0,0,0,52,48Zm0,6a2,2,0,1,1,2-2A2,2,0,0,1,52,54Z"/><path d="M12,48a4,4,0,1,0,4,4A4,4,0,0,0,12,48Zm0,6a2,2,0,1,1,2-2A2,2,0,0,1,12,54Z"/><rect x="52" y="16" width="10" height="2"/><rect x="50" y="8" width="10" height="2" transform="translate(9.745 41.527) rotate(-45)"/><rect x="54" y="20" width="2" height="10" transform="translate(-1.569 46.213) rotate(-45)"/><rect x="2" y="16" width="10" height="2"/><rect x="8" y="4" width="2" height="10" transform="translate(-3.728 9) rotate(-45)"/><rect x="4" y="24" width="10" height="2" transform="translate(-15.042 13.686) rotate(-45)"/></g></svg>
